<svg width="17" height="16" viewBox="0 0 17 16" fill="none" xmlns="http://www.w3.org/2000/svg">
<path fill-rule="evenodd" clip-rule="evenodd" d="M15 11.2802V13.2802C15.0015 13.6557 14.8447 14.0143 14.5681 14.2681C14.2914 14.5219 13.9206 14.6474 13.5467 14.6136C11.4952 14.3907 9.52469 13.6897 7.79335 12.5669C6.18257 11.5433 4.81691 10.1777 3.79335 8.56689C2.66667 6.8277 1.96552 4.84756 1.74669 2.78689C1.713 2.41414 1.83754 2.0444 2.08986 1.76798C2.34219 1.49155 2.69908 1.33391 3.07335 1.33356H5.07335C5.7426 1.32697 6.31302 1.81754 6.40669 2.48023C6.4911 3.12027 6.64765 3.74871 6.87335 4.35356C7.05651 4.84081 6.93936 5.3901 6.57335 5.76023L5.72669 6.60689C6.67572 8.27593 8.05766 9.65786 9.72669 10.6069L10.5734 9.76023C10.9435 9.39422 11.4928 9.27707 11.98 9.46023C12.5849 9.68593 13.2133 9.84248 13.8534 9.92689C14.5237 10.0215 15.0168 10.6034 15 11.2802Z" stroke="#FFF2E9" stroke-width="1.5" stroke-linecap="round" stroke-linejoin="round"/>
</svg>
