<svg width="64" height="64" viewBox="0 0 64 64" fill="none" xmlns="http://www.w3.org/2000/svg">
<path d="M45.3333 56V50.6667C45.3333 44.7756 40.5577 40 34.6667 40H13.3333C7.44229 40 2.66666 44.7756 2.66666 50.6667V56" stroke="#FE7E25" stroke-width="2" stroke-linecap="round" stroke-linejoin="round"/>
<path fill-rule="evenodd" clip-rule="evenodd" d="M24 29.3333C29.891 29.3333 34.6667 24.5577 34.6667 18.6667C34.6667 12.7756 29.891 8 24 8C18.109 8 13.3333 12.7756 13.3333 18.6667C13.3333 24.5577 18.109 29.3333 24 29.3333Z" stroke="#FE7E25" stroke-width="2" stroke-linecap="round" stroke-linejoin="round"/>
<path d="M61.3333 56V50.6667C61.3297 45.8057 58.04 41.5619 53.3333 40.3467" stroke="#FE7E25" stroke-width="2" stroke-linecap="round" stroke-linejoin="round"/>
<path d="M42.6667 8.34668C47.3864 9.55513 50.6876 13.808 50.6876 18.68C50.6876 23.552 47.3864 27.8049 42.6667 29.0133" stroke="#FE7E25" stroke-width="2" stroke-linecap="round" stroke-linejoin="round"/>
</svg>
